<svg xmlns="http://www.w3.org/2000/svg" xmlns:xlink="http://www.w3.org/1999/xlink" width="23.244" height="23" viewBox="0 0 23.244 23">
  <defs>
    <clipPath id="clip-path">
      <path id="Mask" d="M1.335,10.55.145,6.045C-.232,4.622.126,3.733,1.209,3.4a.6.6,0,0,1,.177-.027.616.616,0,0,1,.268.063l.522.258L9.885.746,11.147.359A9.322,9.322,0,0,1,13.825,0,10.3,10.3,0,0,1,17.55.65a3.172,3.172,0,0,1,2.1,1.908c.272,1.029-.364,2.424-1.744,3.828a11.314,11.314,0,0,1-4.38,2.8l-1.3.4-7.97,1.848-.329.537a.6.6,0,0,1-.255.228l-.081.031a1.981,1.981,0,0,1-.58.094C2.209,12.321,1.646,11.725,1.335,10.55ZM1.272,5.592l.037.148,1.19,4.5c.147.554.289.8.49.853l.055.009.318-.516a.592.592,0,0,1,.037-.053L1.923,4.909l-.047-.021-.5-.248C1.182,4.793,1.151,5.077,1.272,5.592Zm3.135,4.573,6.425-1.489L9.05,2.35,2.968,4.679Zm7.675-1.792,1.095-.335a10.3,10.3,0,0,0,3.688-2.325c1.19-1.131,1.8-2.2,1.624-2.848l-.035-.1c-.4-.967-2.7-1.545-4.694-1.545a7.924,7.924,0,0,0-2.259.291l-1.213.371-.011,0-.023.009ZM16.349,3.39a3.954,3.954,0,0,0-.679-.247A7.923,7.923,0,0,0,12.2,3a.593.593,0,0,1-.692-.421.534.534,0,0,1,.475-.614,9.248,9.248,0,0,1,4.054.18,5.188,5.188,0,0,1,.919.342.494.494,0,0,1,.21.72.611.611,0,0,1-.512.259A.651.651,0,0,1,16.349,3.39Z" transform="translate(0 10.154) rotate(-31)"/>
    </clipPath>
  </defs>
  <g id="FANCIM_Icon_Main_click_bullet_yellow" data-name="FANCIM_Icon/Main_click/bullet_yellow" transform="translate(0.001)">
    <path id="Path" d="M10.682.311,9.472.647,2.084,3.2l-.5-.223a.634.634,0,0,0-.425-.032C.046,3.256-.194,4.1.138,5.239l1.14,3.9C1.614,10.29,2.3,10.912,3.44,10.6l.078-.027a.561.561,0,0,0,.244-.2l.316-.465,7.637-1.6,1.249-.345c2.8-.774,6.442-3.781,5.869-5.743C18.251.228,13.491-.466,10.682.311Z" transform="matrix(0.848, -0.53, 0.53, 0.848, 0.249, 12.389)" fill="#ffed43"/>
    <g id="그룹_4" data-name="그룹 4" transform="translate(-0.001 1.554)">
      <path id="Mask-2" data-name="Mask" d="M1.335,10.55.145,6.045C-.232,4.622.126,3.733,1.209,3.4a.6.6,0,0,1,.177-.027.616.616,0,0,1,.268.063l.522.258L9.885.746,11.147.359A9.322,9.322,0,0,1,13.825,0,10.3,10.3,0,0,1,17.55.65a3.172,3.172,0,0,1,2.1,1.908c.272,1.029-.364,2.424-1.744,3.828a11.314,11.314,0,0,1-4.38,2.8l-1.3.4-7.97,1.848-.329.537a.6.6,0,0,1-.255.228l-.081.031a1.981,1.981,0,0,1-.58.094C2.209,12.321,1.646,11.725,1.335,10.55ZM1.272,5.592l.037.148,1.19,4.5c.147.554.289.8.49.853l.055.009.318-.516a.592.592,0,0,1,.037-.053L1.923,4.909l-.047-.021-.5-.248C1.182,4.793,1.151,5.077,1.272,5.592Zm3.135,4.573,6.425-1.489L9.05,2.35,2.968,4.679Zm7.675-1.792,1.095-.335a10.3,10.3,0,0,0,3.688-2.325c1.19-1.131,1.8-2.2,1.624-2.848l-.035-.1c-.4-.967-2.7-1.545-4.694-1.545a7.924,7.924,0,0,0-2.259.291l-1.213.371-.011,0-.023.009ZM16.349,3.39a3.954,3.954,0,0,0-.679-.247A7.923,7.923,0,0,0,12.2,3a.593.593,0,0,1-.692-.421.534.534,0,0,1,.475-.614,9.248,9.248,0,0,1,4.054.18,5.188,5.188,0,0,1,.919.342.494.494,0,0,1,.21.72.611.611,0,0,1-.512.259A.651.651,0,0,1,16.349,3.39Z" transform="translate(0 10.154) rotate(-31)"/>
    </g>
  </g>
</svg>
