<svg id="_1" data-name="1" xmlns="http://www.w3.org/2000/svg" width="40" height="40" viewBox="0 0 40 40">
  <g id="Group_12" data-name="Group 12" transform="translate(6.193 6.317)">
    <g id="Path" transform="translate(0 0)">
      <path id="Path-2" data-name="Path" d="M25.929,4.861c0-1.636-1.15-3.75-4.464-3.75a11.221,11.221,0,0,0-3.679.993l.264-.371A1.071,1.071,0,1,0,16.307.49l-2.6,3.636L11.679.554A1.073,1.073,0,1,0,9.814,1.618l.486.85A10.95,10.95,0,0,0,5.743,1.09,4.957,4.957,0,0,0,2.679,2.368,3.043,3.043,0,0,0,1.25,4.84a2.786,2.786,0,0,0,.329,1.293A2.143,2.143,0,0,0,0,8.19v3.636a2.143,2.143,0,0,0,2.143,2.143V26.826a2.143,2.143,0,0,0,2.143,2.143H22.857A2.143,2.143,0,0,0,25,26.826V13.968a2.143,2.143,0,0,0,2.143-2.143V8.211A2.143,2.143,0,0,0,25.6,6.154,2.786,2.786,0,0,0,25.929,4.861Z" transform="translate(0 0)" fill="none"/>
      <path id="Path-3" data-name="Path" d="M25.929,4.861c0-1.636-1.15-3.75-4.464-3.75a11.221,11.221,0,0,0-3.679.993l.264-.371A1.071,1.071,0,1,0,16.307.49l-2.6,3.636L11.679.554A1.073,1.073,0,1,0,9.814,1.618l.486.85A10.95,10.95,0,0,0,5.743,1.09,4.957,4.957,0,0,0,2.679,2.368,3.043,3.043,0,0,0,1.25,4.84a2.786,2.786,0,0,0,.329,1.293A2.143,2.143,0,0,0,0,8.19v3.636a2.143,2.143,0,0,0,2.143,2.143V26.826a2.143,2.143,0,0,0,2.143,2.143H22.857A2.143,2.143,0,0,0,25,26.826V13.968a2.143,2.143,0,0,0,2.143-2.143V8.211A2.143,2.143,0,0,0,25.6,6.154,2.786,2.786,0,0,0,25.929,4.861Z" transform="translate(0 0)"/>
    </g>
    <g id="Path-4" data-name="Path" transform="translate(15.586 3.233)">
      <path id="Path-5" data-name="Path" d="M8.2,1.629a.971.971,0,0,1-.479.714,2.621,2.621,0,0,1-1.479.514H0A8.086,8.086,0,0,1,5.879,0C7.729.021,8.2,1.107,8.2,1.629Z" fill="none"/>
      <path id="Path-6" data-name="Path" d="M8.2,1.629a.971.971,0,0,1-.479.714,2.621,2.621,0,0,1-1.479.514H0A8.086,8.086,0,0,1,5.879,0C7.729.021,8.2,1.107,8.2,1.629Z" fill="#ffed43"/>
    </g>
    <g id="Path-7" data-name="Path" transform="translate(2.179 8.254)">
      <path id="Path-8" data-name="Path" d="M0,0H10V3.571H0Z" fill="none"/>
      <path id="Path-9" data-name="Path" d="M0,0H10V3.571H0Z" fill="#ffed43"/>
    </g>
    <g id="Path-10" data-name="Path" transform="translate(3.436 3.254)">
      <path id="Path-11" data-name="Path" d="M2.314,0A8.086,8.086,0,0,1,8.193,2.857H1.957C.614,2.857,0,2.086,0,1.643S.464,0,2.314,0Z" fill="none"/>
      <path id="Path-12" data-name="Path" d="M2.314,0A8.086,8.086,0,0,1,8.193,2.857H1.957C.614,2.857,0,2.086,0,1.643S.464,0,2.314,0Z" fill="#ffed43"/>
    </g>
    <g id="Path-13" data-name="Path" transform="translate(4.321 13.968)">
      <path id="Path-14" data-name="Path" d="M0,0H7.857V12.857H0Z" fill="none"/>
      <path id="Path-15" data-name="Path" d="M0,0H7.857V12.857H0Z" fill="#ffed43"/>
    </g>
    <g id="Path-16" data-name="Path" transform="translate(14.321 13.968)">
      <path id="Path-17" data-name="Path" d="M8.571,12.857H0V0H8.571Z" fill="none"/>
      <path id="Path-18" data-name="Path" d="M8.571,12.857H0V0H8.571Z" fill="#ffed43"/>
    </g>
    <g id="Path-19" data-name="Path" transform="translate(14.321 8.254)">
      <path id="Path-20" data-name="Path" d="M10.714,3.571H0V0H10.714Z" fill="none"/>
      <path id="Path-21" data-name="Path" d="M10.714,3.571H0V0H10.714Z" fill="#ffed43"/>
    </g>
  </g>
</svg>
